<svg width="314" height="73" xmlns="http://www.w3.org/2000/svg"><g fill-rule="nonzero" fill="none"><path d="M59.14,50.15 L59.14,49.58 C59.5068966,49.4243146 59.8449567,49.2079561 60.14,48.94 C60.3008074,48.7092386 60.3783854,48.4306632 60.36,48.15 C60.4,45.7366667 60.42,43.6033333 60.42,41.75 L60.36,35.51 C60.36,34.89 60.2266667,34.4966667 59.96,34.33 C59.3801397,34.109735 58.7577751,34.0242453 58.14,34.08 L58.14,33.36 C59.4733333,33.4133333 60.5966667,33.44 61.51,33.44 C62.4233333,33.44 63.54,33.4133333 64.86,33.36 L64.86,34.08 C64.2585927,34.0248044 63.652594,34.1103975 63.09,34.33 C62.8366667,34.4966667 62.7,34.89 62.68,35.51 C62.64,37.87 62.62,39.9533333 62.62,41.76 C62.62,43.8066667 62.6433333,46.1966667 62.69,48.93 C63.87,49.03 64.9366667,49.08 65.89,49.08 L66.4,49.08 C67.1987475,49.0811004 67.9968437,49.03435 68.79,48.94 C69.3229484,48.9040316 69.8481404,48.7929333 70.35,48.61 L71,46 L71.77,46 C71.6766667,46.7733333 71.61,47.44 71.57,48 C71.53,48.56 71.5066667,49.2266667 71.5,50 C70.8333333,50.0533333 69.7866667,50.0833333 68.36,50.09 C66.9333333,50.0966667 65.5533333,50.0966667 64.22,50.09 C63.2533333,50.09 62.2833333,50.09 61.31,50.09 C60.3366667,50.09 59.6133333,50.11 59.14,50.15 Z M74.58,48.76 C73.5177149,47.6045263 72.950502,46.0787954 73,44.51 C72.9440389,42.9487096 73.546345,41.4356878 74.66,40.34 C75.8234018,39.2278547 77.3924193,38.6421846 79,38.72 C80.4838474,38.6659562 81.9265059,39.2141665 83,40.24 C84.0426333,41.2720746 84.6048612,42.6939671 84.55,44.16 C84.6149453,45.8207248 84.0178735,47.4392928 82.89,48.66 C81.7766732,49.8308852 80.2146504,50.4680739 78.6,50.41 C77.0845874,50.4664007 75.6188103,49.8647758 74.58,48.76 Z M81.49,48.4 C82.1409816,47.3906367 82.4495496,46.198442 82.37,45 C82.4601532,43.573043 82.1111745,42.1526995 81.37,40.93 C80.7369129,39.9826516 79.6587245,39.4303165 78.52,39.47 C77.5800678,39.4236671 76.6754182,39.8331793 76.09,40.57 C75.4613231,41.4617989 75.1545349,42.540847 75.22,43.63 C75.1282662,45.1459789 75.4754591,46.6562682 76.22,47.98 C76.814489,48.976967 77.8995511,49.5768076 79.06,49.55 C80.0112718,49.5967795 80.9230386,49.165285 81.49,48.4 Z M87.71,48.76 C86.6586042,47.599833 86.1023573,46.0746399 86.16,44.51 C86.1040389,42.9487096 86.706345,41.4356878 87.82,40.34 C88.9663019,39.2457476 90.5063426,38.6614698 92.09,38.72 C93.5738474,38.6659562 95.0165059,39.2141665 96.09,40.24 C97.1326333,41.2720746 97.6948612,42.6939671 97.64,44.16 C97.710355,45.8179205 97.120611,47.4361205 96,48.66 C94.8866732,49.8308852 93.3246504,50.4680739 91.71,50.41 C90.2014713,50.4605723 88.7441534,49.8594286 87.71,48.76 Z M94.62,48.4 C95.2709816,47.3906367 95.5795496,46.198442 95.5,45 C95.5901532,43.573043 95.2411745,42.1526995 94.5,40.93 C93.8669129,39.9826516 92.7887245,39.4303165 91.65,39.47 C90.7100678,39.4236671 89.8054182,39.8331793 89.22,40.57 C88.5913231,41.4617989 88.2845349,42.540847 88.35,43.63 C88.2582662,45.1459789 88.6054591,46.6562682 89.35,47.98 C89.944489,48.976967 91.0295511,49.5768076 92.19,49.55 C93.1412718,49.5967795 94.0530386,49.165285 94.62,48.4 Z M104.36,50.4 C103.00111,50.4424358 101.694725,49.8736446 100.8,48.85 C99.8518226,47.7385227 99.3588743,46.3096869 99.42,44.85 C99.4936953,43.2548752 100.216243,41.7592013 101.42,40.71 C102.475152,39.5085031 103.972799,38.7867457 105.57,38.71 C106.256464,38.7201793 106.934902,38.8592591 107.57,39.12 L108.3,39.46 L108.3,35.46 C108.3,34.7266667 108.21,34.2966667 108.03,34.17 C107.494297,33.9987851 106.926812,33.9509249 106.37,34.03 L106.37,33.41 C107.025893,33.3289616 107.676865,33.2121205 108.32,33.06 C108.962412,32.8812605 109.593542,32.6642052 110.21,32.41 L110.59,32.6 C110.496667,33.2133333 110.433333,33.74 110.4,34.18 C110.366667,34.62 110.343333,35.3466667 110.33,36.36 L110.33,41.23 C110.33,43.23 110.353333,45.51 110.4,48.07 C110.4,48.69 110.526667,49.0833333 110.78,49.25 C111.276508,49.4674651 111.820608,49.5535569 112.36,49.5 L112.36,50.13 L110.36,50.13 L108.36,50.13 L108.36,48.03 C107.610389,48.7018229 106.822396,49.3295463 106,49.91 C105.516173,50.2369222 104.94387,50.4079151 104.36,50.4 Z M105,39.74 C103.97832,39.6910045 103.002081,40.1659316 102.41,41 C101.73599,42.0046338 101.409359,43.2022797 101.48,44.41 C101.418667,45.5836509 101.772718,46.7413996 102.48,47.68 C103.111624,48.5000277 104.095139,48.9713729 105.13,48.95 C105.773426,48.9536279 106.400971,48.7502893 106.92,48.37 C107.488424,47.9538942 107.936878,47.3950522 108.22,46.75 L108.22,41.25 C107.773062,40.8016106 107.247713,40.4389503 106.67,40.18 C106.149927,39.9189593 105.581181,39.7691102 105,39.74 Z M116.71,42.66 L116.71,46.51 C116.67276,47.1659691 116.883341,47.811987 117.3,48.32 C117.718234,48.7713285 118.315578,49.0131977 118.93,48.98 C119.743859,48.9551248 120.519995,48.6311415 121.11,48.07 C121.702607,47.6200525 122.06812,46.9328872 122.11,46.19 L122.11,44.38 L122.11,41.67 C122.164924,41.2767548 122.127257,40.876117 122,40.5 C121.886667,40.3333333 121.626667,40.25 121.22,40.25 L120.28,40.25 L120.28,39.68 C120.933193,39.6125828 121.581254,39.5023456 122.22,39.35 C122.85904,39.1829339 123.486945,38.9758588 124.1,38.73 L124.48,38.92 C124.389526,39.3178568 124.332659,39.7226154 124.31,40.13 C124.31,40.5633333 124.283333,41.4133333 124.23,42.68 L124.23,44.4 L124.23,48.09 C124.23,48.71 124.346667,49.1033333 124.58,49.27 C125.083203,49.4887054 125.634066,49.5747778 126.18,49.52 L126.18,50.15 L124.18,50.03 L122.18,50.03 L122.18,48.03 C121.703554,48.5993359 121.167122,49.115652 120.58,49.57 C119.781667,50.1205594 118.829469,50.4041184 117.86,50.38 C116.995961,50.4287065 116.147686,50.1339669 115.5,49.56 C114.907333,48.9541815 114.598561,48.1259458 114.65,47.28 L114.65,44.36 L114.65,41.65 C114.684201,41.2479653 114.622511,40.8435532 114.47,40.47 C114.356667,40.3033333 114.096667,40.22 113.69,40.22 L112.75,40.22 L112.75,39.65 C113.40315,39.5822713 114.051191,39.4720375 114.69,39.32 C115.328995,39.1527826 115.956891,38.9457106 116.57,38.7 L116.95,38.89 C116.857922,39.2879055 116.797731,39.6925221 116.77,40.1 C116.75,40.5466667 116.73,41.4 116.71,42.66 Z M134.61,42.18 L134.55,41.5 C134.533186,41.3197881 134.49629,41.1420188 134.44,40.97 C134.400342,40.8284149 134.339667,40.6935809 134.26,40.57 C134.05659,40.3112502 133.805372,40.0939806 133.52,39.93 C133.053018,39.6569941 132.520909,39.5153288 131.98,39.52 C131.33796,39.480184 130.702907,39.6717641 130.19,40.06 C129.757157,40.4348371 129.521079,40.9881436 129.55,41.56 C129.527232,42.0396386 129.759081,42.4957357 130.16,42.76 C130.86591,43.1272654 131.630883,43.3675888 132.42,43.47 C133.465866,43.6034967 134.469574,43.9653777 135.36,44.53 C135.930636,44.9947092 136.243167,45.7053459 136.2,46.44 C136.226938,47.5552912 135.722083,48.6169705 134.84,49.3 C133.838649,50.0661886 132.599626,50.4555959 131.34,50.4 C130.774677,50.4068181 130.209669,50.3700424 129.65,50.29 C128.992874,50.1769245 128.342011,50.0300631 127.7,49.85 C127.78,49.1833333 127.836667,48.6333333 127.87,48.2 C127.903333,47.7666667 127.903333,47.22 127.87,46.56 L128.54,46.56 L128.6,47.86 C128.614022,48.0413614 128.672401,48.2164975 128.77,48.37 C128.861223,48.5325433 128.987641,48.6726286 129.14,48.78 C129.453924,48.9910802 129.789084,49.168715 130.14,49.31 C130.619569,49.488867 131.128209,49.5770312 131.64,49.57 C132.384888,49.6162643 133.122007,49.3965463 133.72,48.95 C134.228739,48.5151863 134.505989,47.8682684 134.47,47.2 C134.481426,46.6765374 134.199803,46.1904492 133.74,45.94 C132.886781,45.53335 131.976164,45.2601648 131.04,45.13 C130.113353,45.0284965 129.230096,44.6834743 128.48,44.13 C127.958981,43.6002129 127.692764,42.8708502 127.75,42.13 C127.742453,41.1556633 128.208567,40.2383509 129,39.67 C129.933325,39.0025965 131.063779,38.6680385 132.21,38.72 C132.815439,38.7442907 133.416064,38.8382433 134,39 C134.525004,39.102502 135.033204,39.2775112 135.51,39.52 C135.416667,40.04 135.353333,40.4866667 135.32,40.86 C135.276745,41.3120082 135.256719,41.7659387 135.26,42.22 L134.61,42.18 Z M138.2,43.49 L141.41,43.49 L144.62,43.49 L144,45.29 C142.76,45.29 141.69,45.29 140.79,45.29 C139.89,45.29 138.82,45.29 137.58,45.29 L138.2,43.49 Z M153,41.68 C153,41.06 152.883333,40.6666667 152.65,40.5 C152.157033,40.282497 151.616141,40.1963676 151.08,40.25 L151.08,39.68 C151.753298,39.614862 152.421466,39.5046143 153.08,39.35 C153.728962,39.1833282 154.366872,38.9762579 154.99,38.73 L155.37,38.92 C155.274004,39.3306846 155.213778,39.7489159 155.19,40.17 C155.19,40.61 155.163333,41.4466667 155.11,42.68 L155.11,47.82 L155.11,50.3 C155.156988,51.9559783 154.719039,53.5895949 153.85,55 C153.253052,56.1133071 152.112189,56.8282474 150.85,56.88 C150.713805,56.8960648 150.576195,56.8960648 150.44,56.88 L150.19,56.05 C150.398876,56.1047536 150.614073,56.1316533 150.83,56.13 C151.670527,56.1064273 152.389433,55.5189787 152.58,54.7 C153.011796,53.1895813 153.197507,51.6194761 153.13,50.05 L153.13,47.8 L153,41.68 Z M154.1,33.44 C154.437352,33.4335966 154.761307,33.5719145 154.99,33.82 C155.473337,34.3534692 155.473337,35.1665308 154.99,35.7 C154.756139,35.9438774 154.432886,36.0817605 154.095,36.0817605 C153.757114,36.0817605 153.433861,35.9438774 153.2,35.7 C152.722674,35.1680465 152.722674,34.3619535 153.2,33.83 C153.438291,33.5646195 153.783829,33.4212582 154.14,33.44 L154.1,33.44 Z M160.54,50.4 C159.714742,50.4429912 158.902715,50.1794384 158.26,49.66 C157.693903,49.1532769 157.385497,48.4189751 157.42,47.66 C157.371339,46.7845741 157.649282,45.9222377 158.2,45.24 C158.85203,44.5822642 159.695771,44.1481401 160.61,44 L164.47,43.15 C164.506969,42.310012 164.236806,41.4853034 163.71,40.83 C163.157926,40.2515875 162.377874,39.9476236 161.58,40 C161.242066,40.0120149 160.906587,40.0623368 160.58,40.15 C160.280198,40.2063691 159.992543,40.3146626 159.73,40.47 L159,42.16 L158.35,42.01 L158.35,40.34 C159.045939,39.8495133 159.789729,39.4307131 160.57,39.09 C161.140646,38.8521343 161.751797,38.7265088 162.37,38.72 C163.500045,38.6117421 164.624827,38.9734082 165.48,39.72 C166.219594,40.6262441 166.578153,41.7843914 166.48,42.95 L166.48,44.35 L166.48,48.04 C166.425916,48.4571951 166.533229,48.8792933 166.78,49.22 C167.188024,49.4354172 167.651605,49.5225564 168.11,49.47 L168.11,50.1 L166.28,50 L164.39,50 L164.39,48.11 L161.72,50.11 C161.34373,50.2661943 160.945806,50.3639891 160.54,50.4 Z M164.47,44.4 L164.47,43.83 L161.47,44.67 C160.906192,44.7989953 160.396164,45.0994225 160.01,45.53 C159.675503,45.964075 159.50546,46.5025447 159.53,47.05 C159.500039,47.5771839 159.679776,48.0948247 160.03,48.49 C160.396024,48.8502829 160.897235,49.0391447 161.41,49.01 C162.048912,48.9859688 162.665744,48.7699035 163.18,48.39 C163.670575,48.0340386 164.114102,47.6173915 164.5,47.15 C164.486667,46.1366667 164.476667,45.2166667 164.47,44.39 L164.47,44.4 Z M62.61,72.69 C61.8381515,72.764608 61.0700716,72.5146198 60.49,72 C60.007674,71.3505311 59.7832146,70.5453274 59.86,69.74 L59.86,65.51 L59.86,63.12 L58.01,63.12 L58.01,62.7 L59.85,62.06 L59.85,60.85 C59.85,59.2166667 59.85,58.3866667 59.85,58.36 L61.85,57.44 L62.18,57.7 C62.0856502,58.1784468 62.025498,58.6630061 62,59.15 C61.9533333,59.95 61.9233333,60.85 61.91,61.85 L61.91,62.1 L65.19,62.1 L65,63.16 L61.92,63.16 C61.92,63.9 61.92,64.6 61.92,65.26 L61.92,69.26 C61.8961304,69.7567898 62.0252763,70.2489404 62.29,70.67 C62.5019804,71.0167228 62.8838157,71.2229139 63.29,71.21 C63.5321166,71.2151344 63.7730191,71.1744185 64,71.09 C64.2623737,70.9775313 64.5080134,70.8294745 64.73,70.65 L65,71 L63.88,72.37 C63.7201022,72.4891872 63.5356168,72.5711807 63.34,72.61 C63.1002815,72.6630222 62.8555123,72.6898462 62.61,72.69 Z M71,72.69 C69.5695801,72.7117208 68.2046274,72.0916213 67.28,71 C66.2763949,69.8172279 65.7551231,68.2998271 65.82,66.75 C65.7751279,65.1975245 66.3804856,63.6968172 67.49,62.61 C68.6225233,61.5206426 70.1497675,60.9393511 71.72,61 C72.9018861,60.9667306 74.0362362,61.4659915 74.81,62.36 C75.5064125,63.1472258 75.9245652,64.1416563 76,65.19 L76,66.42 L73.62,66.75 L70.91,66.75 L67.97,66.75 C67.9918504,67.910139 68.3496295,69.0390535 69,70 C69.6944642,70.9536524 70.8215492,71.4946532 72,71.44 C72.5923276,71.4525771 73.1829283,71.3715804 73.75,71.2 C74.3253964,70.9926207 74.8676998,70.7029431 75.36,70.34 L75.7,70.6 L75.28,71.46 C74.6384802,71.8524248 73.9496084,72.161577 73.23,72.38 C72.5042225,72.5842615 71.7539719,72.6885564 71,72.69 Z M74,65.86 L74,65.45 C74.057858,64.4978116 73.7936883,63.5538452 73.25,62.77 C72.7591655,62.1144774 71.9784021,61.7409063 71.16,61.77 C70.2363531,61.7292465 69.3525032,62.1487007 68.8,62.89 C68.2194877,63.7675805 67.9388165,64.8095721 68,65.86 L70.95,65.86 L74,65.86 Z M78.93,70.38 L78.93,66.68 L78.93,63.97 C78.93,63.35 78.8133333,62.9566667 78.58,62.79 C78.0844078,62.5694235 77.5394807,62.4832008 77,62.54 L77,62 C77.6366855,61.9324941 78.2681103,61.8222454 78.89,61.67 C79.5278209,61.4893786 80.1525999,61.2655273 80.76,61 L81.14,61.19 C81.0604891,61.5787378 81.0136589,61.9734493 81,62.37 L81,63.96 C81.5459435,63.2208548 82.1370716,62.5161768 82.77,61.85 C83.3742289,61.2869957 84.1743225,60.9820273 85,61 C85.1393205,61.0035088 85.2774075,61.0270846 85.41,61.07 C85.528287,61.0959646 85.6382562,61.1509491 85.73,61.23 C85.6766667,61.7966667 85.64,62.2866667 85.62,62.7 C85.6,63.1133333 85.6,63.6033333 85.62,64.17 L85.14,64.17 C85.0179524,63.8227965 84.795121,63.5198851 84.5,63.3 C84.2040304,63.1046493 83.8543787,63.0067469 83.5,63.02 C82.7390884,63.0206143 82.0368665,63.4289716 81.66,64.09 C81.1584379,64.9386921 80.9151801,65.9151986 80.96,66.9 L80.96,70.37 C80.96,70.99 81.1,71.3833333 81.38,71.55 C81.9878124,71.7697111 82.6360408,71.8550043 83.28,71.8 L83.28,72.43 C82.06,72.3766667 81.0066667,72.35 80.12,72.35 C79.2333333,72.35 78.1933333,72.38 77,72.44 L77,71.82 C77.5328782,71.8732577 78.0704498,71.7871084 78.56,71.57 C78.8,71.3966667 78.9233333,71 78.93,70.38 Z M88.62,63.29 C88.4586947,62.8574111 88.2102234,62.4625801 87.89,62.13 C87.5727951,61.9347231 87.2010335,61.8470434 86.83,61.88 L86.83,61.26 C87.9033333,61.3133333 88.8333333,61.34 89.62,61.34 C90.4066667,61.34 91.3466667,61.3133333 92.44,61.26 L92.44,61.89 C91.8709903,61.8223073 91.2942424,61.9086468 90.77,62.14 C90.5833333,62.3066667 90.6133333,62.7 90.86,63.32 C91.3866667,64.7066667 91.8733333,65.9366667 92.32,67.01 L93.69,70.31 L95.15,67 L96.39,64.09 C96.8033333,63.13 96.9366667,62.52 96.79,62.26 C96.6433333,62 96.09,61.87 95.13,61.87 L95.13,61.25 C96.0033333,61.3033333 96.7533333,61.33 97.38,61.33 C98.0066667,61.33 98.7566667,61.3033333 99.63,61.25 L99.63,61.88 C99.2776616,61.8434596 98.9236914,61.9319522 98.63,62.13 C98.3100747,62.4742607 98.0558839,62.8741876 97.88,63.31 L96.2,67 C95.46,68.5866667 94.6,70.48 93.62,72.68 L92.62,72.68 C91.7266667,70.48 90.94,68.59 90.26,67.01 L88.62,63.29 Z M102.92,70.38 L102.92,66.68 C102.92,65.8466667 102.92,64.9433333 102.92,63.97 C102.92,63.35 102.796667,62.9566667 102.55,62.79 C102.067698,62.5723087 101.536398,62.4860587 101.01,62.54 L101.01,62 C101.666505,61.9326741 102.317898,61.8224383 102.96,61.67 C103.602367,61.5031324 104.233611,61.2960575 104.85,61.05 L105.23,61.24 C105.139138,61.6344056 105.082263,62.0358762 105.06,62.44 C105.06,62.88 105.033333,63.7333333 104.98,65 L104.98,66.73 L104.98,70.42 C104.98,71.04 105.096667,71.4333333 105.33,71.6 C105.833327,71.8182754 106.384078,71.9043302 106.93,71.85 L106.93,72.48 C105.783333,72.4266667 104.783333,72.4 103.93,72.4 C103.076667,72.4 102.076667,72.4266667 100.93,72.48 L100.93,71.86 C101.462878,71.9132577 102.00045,71.8271084 102.49,71.61 C102.77,71.41 102.913333,71 102.92,70.38 Z M104,55.71 C104.337352,55.7035966 104.661307,55.8419145 104.89,56.09 C105.373337,56.6234692 105.373337,57.4365308 104.89,57.97 C104.656139,58.2138774 104.332886,58.3517605 103.995,58.3517605 C103.657114,58.3517605 103.333861,58.2138774 103.1,57.97 C102.622674,57.4380465 102.622674,56.6319535 103.1,56.1 C103.329197,55.8455652 103.657622,55.703248 104,55.71 Z M115.31,64.47 L115.25,63.79 C115.233186,63.6097881 115.19629,63.4320188 115.14,63.26 C115.100342,63.1184149 115.039667,62.9835809 114.96,62.86 C114.75659,62.6012502 114.505372,62.3839806 114.22,62.22 C113.753018,61.9469941 113.220909,61.8053288 112.68,61.81 C112.03796,61.770184 111.402907,61.9617641 110.89,62.35 C110.457157,62.7248371 110.221079,63.2781436 110.25,63.85 C110.227232,64.3296386 110.459081,64.7857357 110.86,65.05 C111.56591,65.4172654 112.330883,65.6575888 113.12,65.76 C114.145098,65.9019521 115.127472,66.2635204 116,66.82 C116.570636,67.2847092 116.883167,67.9953459 116.84,68.73 C116.866938,69.8452912 116.362083,70.9069705 115.48,71.59 C114.478649,72.3561886 113.239626,72.7455959 111.98,72.69 C111.414677,72.6968181 110.849669,72.6600424 110.29,72.58 C109.632874,72.4669245 108.982011,72.3200631 108.34,72.14 C108.42,71.4733333 108.476667,70.9233333 108.51,70.49 C108.543333,70.0566667 108.543333,69.51 108.51,68.85 L109.18,68.85 L109.24,70.15 C109.254022,70.3313614 109.312401,70.5064975 109.41,70.66 C109.501223,70.8225433 109.627641,70.9626286 109.78,71.07 C110.093924,71.2810802 110.429084,71.458715 110.78,71.6 C111.259569,71.778867 111.768209,71.8670312 112.28,71.86 C113.024888,71.9062643 113.762007,71.6865463 114.36,71.24 C114.868739,70.8051863 115.145989,70.1582684 115.11,69.49 C115.121426,68.9665374 114.839803,68.4804492 114.38,68.23 C113.526781,67.82335 112.616164,67.5501648 111.68,67.42 C110.753353,67.3184965 109.870096,66.9734743 109.12,66.42 C108.598981,65.8902129 108.332764,65.1608502 108.39,64.42 C108.413664,63.4451144 108.909697,62.542559 109.72,62 C110.653325,61.3325965 111.783779,60.9980385 112.93,61.05 C113.527183,61.0627425 114.120987,61.1432583 114.7,61.29 C115.225004,61.392502 115.733204,61.5675112 116.21,61.81 C116.116667,62.33 116.053333,62.7766667 116.02,63.15 C115.976745,63.6020082 115.956719,64.0559387 115.96,64.51 L115.31,64.47 Z M123.64,72.69 C122.199147,72.7207889 120.821314,72.0998453 119.89,71 C118.886395,69.8172279 118.365123,68.2998271 118.43,66.75 C118.385128,65.1975245 118.990486,63.6968172 120.1,62.61 C121.230082,61.5231887 122.753191,60.9420972 124.32,61 C125.501886,60.9667306 126.636236,61.4659915 127.41,62.36 C128.095538,63.1512222 128.502984,64.1452493 128.57,65.19 L128.57,66.42 L126.19,66.75 L123.48,66.75 L120.54,66.75 C120.54326,67.9241509 120.890954,69.0715417 121.54,70.05 C122.234464,71.0036524 123.361549,71.5446532 124.54,71.49 C125.132328,71.5025771 125.722928,71.4215804 126.29,71.25 C126.865396,71.0426207 127.4077,70.7529431 127.9,70.39 L128.24,70.65 L127.82,71.51 C127.17848,71.9024248 126.489608,72.211577 125.77,72.43 C125.074262,72.608578 124.358266,72.6959767 123.64,72.69 Z M126.57,65.86 L126.57,65.45 C126.627858,64.4978116 126.363688,63.5538452 125.82,62.77 C125.329166,62.1144774 124.548402,61.7409063 123.73,61.77 C122.806353,61.7292465 121.922503,62.1487007 121.37,62.89 C120.785165,63.7556131 120.494177,64.7863439 120.54,65.83 L123.49,65.83 L126.57,65.86 Z M134.37,72.69 C133.599591,72.7673238 132.831696,72.5210178 132.25,72.01 C131.767674,71.3605311 131.543215,70.5553274 131.62,69.75 L131.62,65.52 L131.62,63.12 L129.77,63.12 L129.77,62.7 L131.61,62.06 L131.61,60.85 C131.61,59.2166667 131.61,58.3866667 131.61,58.36 L133.61,57.44 L133.94,57.7 C133.85907,58.1794101 133.812286,58.6639621 133.8,59.15 C133.753333,59.95 133.723333,60.85 133.71,61.85 L133.71,62.1 L136.99,62.1 L136.79,63.16 L133.71,63.16 C133.71,63.9 133.71,64.6 133.71,65.26 L133.71,69.26 C133.68613,69.7567898 133.815276,70.2489404 134.08,70.67 C134.29198,71.0167228 134.673816,71.2229139 135.08,71.21 C135.322117,71.2151344 135.563019,71.1744185 135.79,71.09 C136.052374,70.9775313 136.298013,70.8294745 136.52,70.65 L136.86,71.02 L135.74,72.39 C135.580102,72.5091872 135.395617,72.5911807 135.2,72.63 C134.926847,72.6840106 134.648081,72.7041624 134.37,72.69 Z M142.79,72.69 C141.335266,72.7330138 139.940179,72.1109303 139,71 C137.996395,69.8172279 137.475123,68.2998271 137.54,66.75 C137.495128,65.1975245 138.100486,63.6968172 139.21,62.61 C140.352265,61.5103892 141.89609,60.9282916 143.48,61 C144.661886,60.9667306 145.796236,61.4659915 146.57,62.36 C147.255538,63.1512222 147.662984,64.1452493 147.73,65.19 L147.73,66.42 L145.35,66.75 L142.64,66.75 L139.7,66.75 C139.70326,67.9241509 140.050954,69.0715417 140.7,70.05 C141.394464,71.0036524 142.521549,71.5446532 143.7,71.49 C144.292328,71.5025771 144.882928,71.4215804 145.45,71.25 C146.025396,71.0426207 146.5677,70.7529431 147.06,70.39 L147.4,70.65 L146.98,71.51 C146.33848,71.9024248 145.649608,72.211577 144.93,72.43 C144.231024,72.6094404 143.511609,72.6968459 142.79,72.69 Z M145.72,65.86 L145.72,65.45 C145.777858,64.4978116 145.513688,63.5538452 144.97,62.77 C144.479166,62.1144774 143.698402,61.7409063 142.88,61.77 C141.956353,61.7292465 141.072503,62.1487007 140.52,62.89 C139.935165,63.7556131 139.644177,64.7863439 139.69,65.83 L142.64,65.83 L145.72,65.86 Z M152.3,72.69 C151.474742,72.7329912 150.662715,72.4694384 150.02,71.95 C149.453903,71.4432769 149.145497,70.7089751 149.18,69.95 C149.131339,69.0745741 149.409282,68.2122377 149.96,67.53 C150.609295,66.8649302 151.453325,66.4236529 152.37,66.27 L156.23,65.42 C156.266969,64.580012 155.996806,63.7553034 155.47,63.1 C154.917926,62.5215875 154.137874,62.2176236 153.34,62.27 C153.002066,62.2820149 152.666587,62.3323368 152.34,62.42 C152.040198,62.4763691 151.752543,62.5846626 151.49,62.74 L150.78,64.45 L150.13,64.3 L150.13,62.63 C150.825939,62.1395133 151.569729,61.7207131 152.35,61.38 C152.920646,61.1421343 153.531797,61.0165088 154.15,61.01 C155.280045,60.9017421 156.404827,61.2634082 157.26,62.01 C157.999594,62.9162441 158.358153,64.0743914 158.26,65.24 L158.26,66.64 L158.26,70.33 C158.205916,70.7471951 158.313229,71.1692933 158.56,71.51 C158.968024,71.7254172 159.431605,71.8125564 159.89,71.76 L159.89,72.39 L158,72.32 L156.11,72.32 L156.11,70.43 L153.44,72.43 C153.074787,72.5720391 152.690684,72.6596415 152.3,72.69 Z M156.23,66.69 L156.23,66.12 L153.23,66.96 C152.666192,67.0889953 152.156164,67.3894225 151.77,67.82 C151.435503,68.254075 151.26546,68.7925447 151.29,69.34 C151.260039,69.8671839 151.439776,70.3848247 151.79,70.78 C152.156024,71.1402829 152.657235,71.3291447 153.17,71.3 C153.808912,71.2759688 154.425744,71.0599035 154.94,70.68 C155.430575,70.3240386 155.874102,69.9073915 156.26,69.44 C156.253333,68.42 156.246667,67.4966667 156.24,66.67 L156.23,66.69 Z M165.85,72.69 C164.49111,72.7324358 163.184725,72.1636446 162.29,71.14 C161.341823,70.0285227 160.848874,68.5996869 160.91,67.14 C161.287563,63.9145415 163.833931,61.372314 167.06,61 C167.746464,61.0101793 168.424902,61.1492591 169.06,61.41 L169.79,61.75 L169.79,57.75 C169.79,57.0166667 169.7,56.5866667 169.52,56.46 C168.984297,56.2887851 168.416812,56.2409249 167.86,56.32 L167.86,55.7 C168.515893,55.6189616 169.166865,55.5021205 169.81,55.35 C170.452412,55.1712605 171.083542,54.9542052 171.7,54.7 L172.08,54.89 C171.986667,55.5033333 171.923333,56.03 171.89,56.47 C171.856667,56.91 171.833333,57.6366667 171.82,58.65 L171.82,63.52 C171.82,65.52 171.843333,67.8 171.89,70.36 C171.89,70.98 172.016667,71.3733333 172.27,71.54 C172.766508,71.7574651 173.310608,71.8435569 173.85,71.79 L173.85,72.42 L171.85,72.42 L169.85,72.42 L169.85,70.32 C169.134081,71.0058975 168.379516,71.6502833 167.59,72.25 C167.072237,72.5795688 166.462187,72.7338342 165.85,72.69 Z M166.46,62 C165.450871,61.9510927 164.484901,62.4134053 163.89,63.23 C163.21599,64.2346338 162.889359,65.4322797 162.96,66.64 C162.898667,67.8136509 163.252718,68.9713996 163.96,69.91 C164.591624,70.7300277 165.575139,71.2013729 166.61,71.18 C167.253426,71.1836279 167.880971,70.9802893 168.4,70.6 C168.968424,70.1838942 169.416878,69.6250522 169.7,68.98 L169.7,63.48 C169.253062,63.0316106 168.727713,62.6689503 168.15,62.41 C167.621539,62.1566475 167.045807,62.016973 166.46,62 Z M178.2,64.95 L178.2,68.8 C178.16276,69.4559691 178.373341,70.101987 178.79,70.61 C179.208234,71.0613285 179.805578,71.3031977 180.42,71.27 C181.233859,71.2451248 182.009995,70.9211415 182.6,70.36 C183.192607,69.9100525 183.55812,69.2228872 183.6,68.48 L183.6,66.67 L183.6,63.96 C183.634201,63.5579653 183.572511,63.1535532 183.42,62.78 C183.306667,62.6133333 183.046667,62.53 182.64,62.53 L181.7,62.53 L181.7,62 C182.353193,61.9325828 183.001254,61.8223456 183.64,61.67 C184.27904,61.5029339 184.906945,61.2958588 185.52,61.05 L185.9,61.24 C185.809526,61.6378568 185.752659,62.0426154 185.73,62.45 C185.73,62.8833333 185.703333,63.7333333 185.65,65 L185.65,66.73 L185.65,70.42 C185.65,71.04 185.766667,71.4333333 186,71.6 C186.503203,71.8187054 187.054066,71.9047778 187.6,71.85 L187.6,72.48 L185.6,72.36 L183.6,72.36 L183.6,70.36 C183.123554,70.9293359 182.587122,71.445652 182,71.9 C181.201667,72.4505594 180.249469,72.7341184 179.28,72.71 C178.415961,72.7587065 177.567686,72.4639669 176.92,71.89 C176.327333,71.2841815 176.018561,70.4559458 176.07,69.61 L176.07,66.69 L176.07,63.98 C176.104201,63.5779653 176.042511,63.1735532 175.89,62.8 C175.776667,62.6333333 175.516667,62.55 175.11,62.55 L174.17,62.55 L174.17,62 C174.82315,61.9322713 175.471191,61.8220375 176.11,61.67 C176.748995,61.5027826 177.376891,61.2957106 177.99,61.05 L178.37,61.24 C178.277922,61.6379055 178.217731,62.0425221 178.19,62.45 C178.216667,62.85 178.22,63.6833333 178.2,64.95 Z M196.09,64.47 L196.03,63.79 C196.013186,63.6097881 195.97629,63.4320188 195.92,63.26 C195.880342,63.1184149 195.819667,62.9835809 195.74,62.86 C195.53659,62.6012502 195.285372,62.3839806 195,62.22 C194.533018,61.9469941 194.000909,61.8053288 193.46,61.81 C192.81796,61.770184 192.182907,61.9617641 191.67,62.35 C191.237157,62.7248371 191.001079,63.2781436 191.03,63.85 C191.007232,64.3296386 191.239081,64.7857357 191.64,65.05 C192.34591,65.4172654 193.110883,65.6575888 193.9,65.76 C194.945866,65.8934967 195.949574,66.2553777 196.84,66.82 C197.410636,67.2847092 197.723167,67.9953459 197.68,68.73 C197.706938,69.8452912 197.202083,70.9069705 196.32,71.59 C195.318649,72.3561886 194.079626,72.7455959 192.82,72.69 C192.254677,72.6968181 191.689669,72.6600424 191.13,72.58 C190.472874,72.4669245 189.822011,72.3200631 189.18,72.14 C189.26,71.4733333 189.316667,70.9233333 189.35,70.49 C189.383333,70.0566667 189.383333,69.51 189.35,68.85 L190.02,68.85 L190.08,70.15 C190.094022,70.3313614 190.152401,70.5064975 190.25,70.66 C190.341223,70.8225433 190.467641,70.9626286 190.62,71.07 C190.933924,71.2810802 191.269084,71.458715 191.62,71.6 C192.099569,71.778867 192.608209,71.8670312 193.12,71.86 C193.864888,71.9062643 194.602007,71.6865463 195.2,71.24 C195.708739,70.8051863 195.985989,70.1582684 195.95,69.49 C195.961426,68.9665374 195.679803,68.4804492 195.22,68.23 C194.366781,67.82335 193.456164,67.5501648 192.52,67.42 C191.593353,67.3184965 190.710096,66.9734743 189.96,66.42 C189.438981,65.8902129 189.172764,65.1608502 189.23,64.42 C189.239977,63.4561499 189.712476,62.5557984 190.5,62 C191.433325,61.3325965 192.563779,60.9980385 193.71,61.05 C194.307183,61.0627425 194.900987,61.1432583 195.48,61.29 C196.005004,61.392502 196.513204,61.5675112 196.99,61.81 C196.896667,62.33 196.833333,62.7766667 196.8,63.15 C196.756745,63.6020082 196.736719,64.0559387 196.74,64.51 L196.09,64.47 Z M203.35,72.69 C202.579591,72.7673238 201.811696,72.5210178 201.23,72.01 C200.747674,71.3605311 200.523215,70.5553274 200.6,69.75 L200.6,65.52 L200.6,63.12 L198.75,63.12 L198.75,62.7 L200.59,62.06 L200.59,60.85 C200.59,59.2166667 200.59,58.3866667 200.59,58.36 L202.59,57.44 L202.92,57.7 C202.83907,58.1794101 202.792286,58.6639621 202.78,59.15 C202.733333,59.95 202.703333,60.85 202.69,61.85 L202.69,62.1 L205.97,62.1 L205.77,63.16 L202.69,63.16 C202.69,63.9 202.69,64.6 202.69,65.26 L202.69,69.26 C202.66613,69.7567898 202.795276,70.2489404 203.06,70.67 C203.27198,71.0167228 203.653816,71.2229139 204.06,71.21 C204.302117,71.2151344 204.543019,71.1744185 204.77,71.09 C205.032374,70.9775313 205.278013,70.8294745 205.5,70.65 L205.84,71.02 L204.72,72.39 C204.560102,72.5091872 204.375617,72.5911807 204.18,72.63 C203.906847,72.6840106 203.628081,72.7041624 203.35,72.69 Z M211.77,72.69 C210.322202,72.7268822 208.935753,72.1053707 208,71 C206.996395,69.8172279 206.475123,68.2998271 206.54,66.75 C206.495128,65.1975245 207.100486,63.6968172 208.21,62.61 C209.344963,61.5180896 210.876346,60.9365975 212.45,61 C213.631886,60.9667306 214.766236,61.4659915 215.54,62.36 C216.225538,63.1512222 216.632984,64.1452493 216.7,65.19 L216.7,66.42 L214.32,66.75 L211.61,66.75 L208.67,66.75 C208.67326,67.9241509 209.020954,69.0715417 209.67,70.05 C210.364464,71.0036524 211.491549,71.5446532 212.67,71.49 C213.262328,71.5025771 213.852928,71.4215804 214.42,71.25 C214.995396,71.0426207 215.5377,70.7529431 216.03,70.39 L216.37,70.65 L215.95,71.51 C215.30848,71.9024248 214.619608,72.211577 213.9,72.43 C213.204262,72.608578 212.488266,72.6959767 211.77,72.69 Z M214.7,65.86 L214.7,65.45 C214.757858,64.4978116 214.493688,63.5538452 213.95,62.77 C213.459166,62.1144774 212.678402,61.7409063 211.86,61.77 C210.936353,61.7292465 210.052503,62.1487007 209.5,62.89 C208.915165,63.7556131 208.624177,64.7863439 208.67,65.83 L211.62,65.83 L214.7,65.86 Z M226,70.38 L226,66.68 C226,65.8466667 226,64.9433333 226,63.97 C226,63.35 225.876667,62.9566667 225.63,62.79 C225.147698,62.5723087 224.616398,62.4860587 224.09,62.54 L224.09,62 C224.746505,61.9326741 225.397898,61.8224383 226.04,61.67 C226.682367,61.5031324 227.313611,61.2960575 227.93,61.05 L228.31,61.24 C228.219138,61.6344056 228.162263,62.0358762 228.14,62.44 C228.14,62.88 228.113333,63.7333333 228.06,65 L228.06,66.73 L228.06,70.42 C228.06,71.04 228.176667,71.4333333 228.41,71.6 C228.913327,71.8182754 229.464078,71.9043302 230.01,71.85 L230.01,72.48 C228.863333,72.4266667 227.863333,72.4 227.01,72.4 C226.156667,72.4 225.156667,72.4266667 224.01,72.48 L224.01,71.86 C224.542878,71.9132577 225.08045,71.8271084 225.57,71.61 C225.856667,71.41 226,71 226,70.38 Z M227.08,55.71 C227.417352,55.7035966 227.741307,55.8419145 227.97,56.09 C228.480256,56.6199056 228.493362,57.4543308 228,58 C227.766139,58.2438774 227.442886,58.3817605 227.105,58.3817605 C226.767114,58.3817605 226.443861,58.2438774 226.21,58 C225.732674,57.4680465 225.732674,56.6619535 226.21,56.13 C226.424474,55.8748106 226.736877,55.7222413 227.07,55.71 L227.08,55.71 Z M233.1,70.38 L233.1,66.68 C233.1,65.8466667 233.1,64.9433333 233.1,63.97 C233.1,63.35 232.98,62.9566667 232.74,62.79 C232.257698,62.5723087 231.726398,62.4860587 231.2,62.54 L231.2,62 C231.833338,61.9321408 232.461413,61.8218936 233.08,61.67 C233.704263,61.4973095 234.318528,61.2903286 234.92,61.05 L235.3,61.24 C235.216848,61.6284054 235.166669,62.0231434 235.15,62.42 L235.15,63.42 C235.757435,62.7982598 236.401947,62.2138578 237.08,61.67 C237.656339,61.2367961 238.359024,61.0049099 239.08,61.01 C240.173769,60.9264881 241.255092,61.2869288 242.08,62.01 C242.821929,62.7711165 243.210154,63.8088035 243.15,64.87 L243.15,66.82 L243.15,70.36 C243.15,70.98 243.256667,71.3733333 243.47,71.54 C243.910129,71.7560604 244.402545,71.8427534 244.89,71.79 L244.89,72.42 L243,72.32 L241.06,72.32 C241.1,70.1933333 241.12,68.3566667 241.12,66.81 L241.12,65.61 C241.169304,64.7700383 240.901667,63.9421476 240.37,63.29 C239.84302,62.7167206 239.087592,62.4086819 238.31,62.45 C237.476867,62.4116771 236.664188,62.7150771 236.06,63.29 C235.479409,63.87971 235.168202,64.6830581 235.2,65.51 L235.2,66.64 L235.2,70.33 C235.2,70.95 235.316667,71.3433333 235.55,71.51 C236.053203,71.7287054 236.604066,71.8147778 237.15,71.76 L237.15,72.39 C236.003333,72.3366667 235.003333,72.31 234.15,72.31 C233.296667,72.31 232.296667,72.3366667 231.15,72.39 L231.15,71.77 C231.682864,71.8227973 232.220319,71.7366668 232.71,71.52 C232.956667,71.38 233.086667,71 233.1,70.38 Z M253,64.47 L252.94,63.79 C252.923186,63.6097881 252.88629,63.4320188 252.83,63.26 C252.790342,63.1184149 252.729667,62.9835809 252.65,62.86 C252.44659,62.6012502 252.195372,62.3839806 251.91,62.22 C251.443018,61.9469941 250.910909,61.8053288 250.37,61.81 C249.72796,61.770184 249.092907,61.9617641 248.58,62.35 C248.147157,62.7248371 247.911079,63.2781436 247.94,63.85 C247.917232,64.3296386 248.149081,64.7857357 248.55,65.05 C249.25591,65.4172654 250.020883,65.6575888 250.81,65.76 C251.855866,65.8934967 252.859574,66.2553777 253.75,66.82 C254.320636,67.2847092 254.633167,67.9953459 254.59,68.73 C254.616938,69.8452912 254.112083,70.9069705 253.23,71.59 C252.228649,72.3561886 250.989626,72.7455959 249.73,72.69 C249.164677,72.6968181 248.599669,72.6600424 248.04,72.58 C247.382874,72.4669245 246.732011,72.3200631 246.09,72.14 C246.17,71.4733333 246.226667,70.9233333 246.26,70.49 C246.293333,70.0566667 246.293333,69.51 246.26,68.85 L247,68.85 L247.06,70.15 C247.074022,70.3313614 247.132401,70.5064975 247.23,70.66 C247.321223,70.8225433 247.447641,70.9626286 247.6,71.07 C247.913924,71.2810802 248.249084,71.458715 248.6,71.6 C249.079569,71.778867 249.588209,71.8670312 250.1,71.86 C250.844888,71.9062643 251.582007,71.6865463 252.18,71.24 C252.688739,70.8051863 252.965989,70.1582684 252.93,69.49 C252.941426,68.9665374 252.659803,68.4804492 252.2,68.23 C251.346781,67.82335 250.436164,67.5501648 249.5,67.42 C248.573353,67.3184965 247.690096,66.9734743 246.94,66.42 C246.418981,65.8902129 246.152764,65.1608502 246.21,64.42 C246.210705,63.4633616 246.667607,62.5644165 247.44,62 C248.373325,61.3325965 249.503779,60.9980385 250.65,61.05 C251.247183,61.0627425 251.840987,61.1432583 252.42,61.29 C252.945004,61.392502 253.453204,61.5675112 253.93,61.81 C253.836667,62.33 253.773333,62.7766667 253.74,63.15 C253.696745,63.6020082 253.676719,64.0559387 253.68,64.51 L253,64.47 Z M260.28,72.69 C259.509591,72.7673238 258.741696,72.5210178 258.16,72.01 C257.677674,71.3605311 257.453215,70.5553274 257.53,69.75 L257.53,65.52 L257.53,63.12 L255.68,63.12 L255.68,62.7 L257.52,62.06 L257.52,60.85 C257.52,59.2166667 257.52,58.3866667 257.52,58.36 L259.52,57.44 L259.85,57.7 C259.76907,58.1794101 259.722286,58.6639621 259.71,59.15 C259.663333,59.95 259.633333,60.85 259.62,61.85 L259.62,62.1 L262.9,62.1 L262.7,63.16 L259.62,63.16 C259.62,63.9 259.62,64.6 259.62,65.26 L259.62,69.26 C259.59613,69.7567898 259.725276,70.2489404 259.99,70.67 C260.20198,71.0167228 260.583816,71.2229139 260.99,71.21 C261.232117,71.2151344 261.473019,71.1744185 261.7,71.09 C261.962374,70.9775313 262.208013,70.8294745 262.43,70.65 L262.77,71.02 L261.65,72.39 C261.490102,72.5091872 261.305617,72.5911807 261.11,72.63 C260.836847,72.6840106 260.558081,72.7041624 260.28,72.69 Z M266,70.38 L266,66.68 C266,65.8466667 266,64.9433333 266,63.97 C266,63.35 265.876667,62.9566667 265.63,62.79 C265.147698,62.5723087 264.616398,62.4860587 264.09,62.54 L264.09,62 C264.746505,61.9326741 265.397898,61.8224383 266.04,61.67 C266.682367,61.5031324 267.313611,61.2960575 267.93,61.05 L268.31,61.24 C268.219138,61.6344056 268.162263,62.0358762 268.14,62.44 C268.14,62.88 268.113333,63.7333333 268.06,65 L268.06,66.73 L268.06,70.42 C268.06,71.04 268.176667,71.4333333 268.41,71.6 C268.913327,71.8182754 269.464078,71.9043302 270.01,71.85 L270.01,72.48 C268.863333,72.4266667 267.863333,72.4 267.01,72.4 C266.156667,72.4 265.156667,72.4266667 264.01,72.48 L264.01,71.86 C264.542878,71.9132577 265.08045,71.8271084 265.57,71.61 C265.816667,71.41 265.96,71 266,70.38 Z M267,55.71 C267.337352,55.7035966 267.661307,55.8419145 267.89,56.09 C268.373337,56.6234692 268.373337,57.4365308 267.89,57.97 C267.656139,58.2138774 267.332886,58.3517605 266.995,58.3517605 C266.657114,58.3517605 266.333861,58.2138774 266.1,57.97 C265.622674,57.4380465 265.622674,56.6319535 266.1,56.1 C266.329197,55.8455652 266.657622,55.703248 267,55.71 Z M274.92,72.69 C274.148151,72.764608 273.380072,72.5146198 272.8,72 C272.317674,71.3505311 272.093215,70.5453274 272.17,69.74 L272.17,65.51 L272.17,63.12 L270.32,63.12 L270.32,62.7 L272.16,62.06 L272.16,60.85 C272.16,59.2166667 272.16,58.3866667 272.16,58.36 L274.16,57.44 L274.49,57.7 C274.40907,58.1794101 274.362286,58.6639621 274.35,59.15 C274.303333,59.95 274.273333,60.85 274.26,61.85 L274.26,62.1 L277.54,62.1 L277.34,63.16 L274.26,63.16 C274.26,63.9 274.26,64.6 274.26,65.26 L274.26,69.26 C274.23613,69.7567898 274.365276,70.2489404 274.63,70.67 C274.84198,71.0167228 275.223816,71.2229139 275.63,71.21 C275.872117,71.2151344 276.113019,71.1744185 276.34,71.09 C276.602374,70.9775313 276.848013,70.8294745 277.07,70.65 L277.41,71.02 L276.29,72.39 C276.130102,72.5091872 275.945617,72.5911807 275.75,72.63 C275.476847,72.6840106 275.198081,72.7041624 274.92,72.69 Z M282.58,64.95 L282.58,68.8 C282.54276,69.4559691 282.753341,70.101987 283.17,70.61 C283.588234,71.0613285 284.185578,71.3031977 284.8,71.27 C285.613859,71.2451248 286.389995,70.9211415 286.98,70.36 C287.572607,69.9100525 287.93812,69.2228872 287.98,68.48 L287.98,66.67 L288,64 C288.034201,63.5979653 287.972511,63.1935532 287.82,62.82 C287.706667,62.6533333 287.446667,62.57 287.04,62.57 L286.1,62.57 L286.1,62 C286.753193,61.9325828 287.401254,61.8223456 288.04,61.67 C288.67904,61.5029339 289.306945,61.2958588 289.92,61.05 L290.3,61.24 C290.209526,61.6378568 290.152659,62.0426154 290.13,62.45 C290.13,62.8833333 290.103333,63.7333333 290.05,65 L290.05,66.73 L290.05,70.42 C290.05,71.04 290.166667,71.4333333 290.4,71.6 C290.903203,71.8187054 291.454066,71.9047778 292,71.85 L292,72.48 L290,72.36 L288,72.36 L288,70.36 C287.523554,70.9293359 286.987122,71.445652 286.4,71.9 C285.601667,72.4505594 284.649469,72.7341184 283.68,72.71 C282.815961,72.7587065 281.967686,72.4639669 281.32,71.89 C280.727333,71.2841815 280.418561,70.4559458 280.47,69.61 L280.47,66.69 L280.47,63.98 C280.504201,63.5779653 280.442511,63.1735532 280.29,62.8 C280.176667,62.6333333 279.916667,62.55 279.51,62.55 L278.57,62.55 L278.57,62 C279.22315,61.9322713 279.871191,61.8220375 280.51,61.67 C281.148995,61.5027826 281.776891,61.2957106 282.39,61.05 L282.77,61.24 C282.677922,61.6379055 282.617731,62.0425221 282.59,62.45 C282.603333,62.85 282.6,63.6833333 282.58,64.95 Z M296.46,64.95 L296.46,68.8 C296.42276,69.4559691 296.633341,70.101987 297.05,70.61 C297.468234,71.0613285 298.065578,71.3031977 298.68,71.27 C299.493859,71.2451248 300.269995,70.9211415 300.86,70.36 C301.452607,69.9100525 301.81812,69.2228872 301.86,68.48 L301.86,66.67 L301.86,63.96 C301.894201,63.5579653 301.832511,63.1535532 301.68,62.78 C301.566667,62.6133333 301.306667,62.53 300.9,62.53 L300,62.53 L300,62 C300.653193,61.9325828 301.301254,61.8223456 301.94,61.67 C302.57904,61.5029339 303.206945,61.2958588 303.82,61.05 L304.2,61.24 C304.102131,61.6206342 304.035246,62.0085687 304,62.4 C304,62.8333333 303.973333,63.6833333 303.92,64.95 L303.92,66.68 L303.92,70.37 C303.92,70.99 304.036667,71.3833333 304.27,71.55 C304.773203,71.7687054 305.324066,71.8547778 305.87,71.8 L305.87,72.43 L303.87,72.31 L301.87,72.31 L301.87,70.31 C301.393554,70.8793359 300.857122,71.395652 300.27,71.85 C299.471667,72.4005594 298.519469,72.6841184 297.55,72.66 C296.685961,72.7087065 295.837686,72.4139669 295.19,71.84 C294.597333,71.2341815 294.288561,70.4059458 294.34,69.56 L294.34,66.64 L294.34,63.93 C294.374201,63.5279653 294.312511,63.1235532 294.16,62.75 C294.046667,62.5833333 293.786667,62.5 293.38,62.5 L292.44,62.5 L292.44,62 C293.09315,61.9322713 293.741191,61.8220375 294.38,61.67 C295.018995,61.5027826 295.646891,61.2957106 296.26,61.05 L296.64,61.24 C296.547922,61.6379055 296.487731,62.0425221 296.46,62.45 C296.486667,62.85 296.486667,63.6833333 296.46,64.95 Z M310.92,72.69 C310.149591,72.7673238 309.381696,72.5210178 308.8,72.01 C308.317674,71.3605311 308.093215,70.5553274 308.17,69.75 L308.17,65.52 L308.17,63.12 L306.32,63.12 L306.32,62.7 L308.16,62.06 L308.16,60.85 C308.16,59.2166667 308.16,58.3866667 308.16,58.36 L310.16,57.44 L310.49,57.7 C310.40907,58.1794101 310.362286,58.6639621 310.35,59.15 C310.303333,59.95 310.273333,60.85 310.26,61.85 L310.26,62.1 L313.54,62.1 L313.34,63.16 L310.26,63.16 C310.26,63.9 310.26,64.6 310.26,65.26 L310.26,69.26 C310.23613,69.7567898 310.365276,70.2489404 310.63,70.67 C310.84198,71.0167228 311.223816,71.2229139 311.63,71.21 C311.872117,71.2151344 312.113019,71.1744185 312.34,71.09 C312.602374,70.9775313 312.848013,70.8294745 313.07,70.65 L313.41,71.02 L312.29,72.39 C312.130102,72.5091872 311.945617,72.5911807 311.75,72.63 C311.476847,72.6840106 311.198081,72.7041624 310.92,72.69 Z" fill="#000"/><path d="M0,50.42 L0,53.29 L0.9,53.29 C6.10546329,53.2628122 11.2726064,54.181039 16.15,56 L16.15,32.89 C16.15,28.58 17.78,26.24 20.09,24.68 C22.32,26.27 24.09,28.68 24.09,32.89 L24,60.06 C25.9165897,61.3515224 27.695872,62.8359332 29.31,64.49 L29.31,32.77 C29.31,25.53 25.47,21.52 21.25,19.04 C20.8638826,18.8133624 20.4629805,18.6129114 20.05,18.44 C19.6377428,18.6144843 19.2369417,18.8148848 18.85,19.04 C13.7711451,21.7117329 10.6473409,27.033052 10.79,32.77 L10.79,50.42 L5.33,50.42 L5.33,33.13 C5.31,18.82 11.59,11.26 20,6.49 C27.87,11.26 34.68,18.83 34.68,33.14 L34.68,50.43 L40,50.43 L40,32.82 C40,15.82 31.15,6.52 21,0.51 C20.677847,0.318915128 20.3438359,0.148569431 20,0 C19.655867,0.147937001 19.3218155,0.318303229 19,0.51 C9.25,6.05 0,15.82 0,32.82 L0,50.42 Z" fill="#B20E10"/><path d="M61.65,18.72 C61.61,19.24 61.59,19.7866667 61.59,20.36 L61.59,23.36 C61.5584257,23.9678291 61.585215,24.5772855 61.67,25.18 C61.73,25.29 61.92,25.35 62.26,25.35 L62.65,25.35 L62.65,25.67 C62.0366667,25.67 61.5166667,25.67 61.09,25.67 C60.6633333,25.67 60.1466667,25.67 59.54,25.67 L59.54,25.35 L60,25.35 C60.1557473,25.3684445 60.3133273,25.3369285 60.45,25.26 C60.5335703,25.1625016 60.5796604,25.0384127 60.58,24.91 C60.58,24.51 60.63,23.98 60.63,23.34 L60.63,20.34 C60.63,19.75 60.63,19.22 60.63,18.73 L60,18.73 C59.5291493,18.7091422 59.0573767,18.7292177 58.59,18.79 C58.5,18.79 58.45,18.98 58.42,19.25 L58.35,19.94 L58.03,19.94 L58.03,19.33 C58.03,19.08 58.03,18.72 57.96,18.26 L61.27,18.26 L64.15,18.26 C64.0833333,18.8466667 64.0466667,19.41 64.04,19.95 L63.72,19.95 L63.67,19.27 C63.6693446,19.1285051 63.6386689,18.9887602 63.58,18.86 C63.5057438,18.8029925 63.4134593,18.7745973 63.32,18.78 C62.94,18.78 62.5066667,18.78 62.02,18.78 L61.65,18.72 Z M69.14,23.13 L66.14,23.13 L65.78,23.98 C65.6222717,24.2975109 65.5047002,24.6334293 65.43,24.98 C65.4234223,25.0428056 65.4454569,25.105237 65.49,25.15 C65.5931123,25.1996826 65.7055833,25.2269482 65.82,25.23 L66.32,25.29 L66.32,25.61 C65.99,25.61 65.61,25.61 65.2,25.61 C64.79,25.61 64.27,25.61 63.89,25.61 L63.89,25.29 L64,25.29 C64.1598573,25.3002432 64.3200657,25.2763824 64.47,25.22 C64.5727928,25.1347781 64.651987,25.0245949 64.7,24.9 C64.9466667,24.4 65.1966667,23.86 65.45,23.28 L66.87,20.05 C67.25,19.19 67.51,18.5666667 67.65,18.18 L68.01,18.18 L70.63,24.29 C70.7289055,24.5479106 70.8458618,24.7985313 70.98,25.04 C71.0283452,25.1201843 71.0974435,25.1858277 71.18,25.23 C71.3457393,25.2777841 71.5175152,25.3013612 71.69,25.3 L71.69,25.62 C71.25,25.62 70.83,25.62 70.42,25.62 C70.01,25.62 69.54,25.62 68.91,25.62 L68.91,25.3 L69.42,25.3 C69.5325935,25.2987218 69.6441625,25.2784365 69.75,25.24 C69.8000853,25.2065355 69.8301116,25.1502362 69.83,25.09 C69.8002889,24.9211321 69.7499103,24.756562 69.68,24.6 L69.14,23.13 Z M66.33,22.71 L69,22.71 L67.69,19.57 L66.33,22.71 Z M74.41,25.11 L75.41,25.11 C76.06,25.11 76.57,25.11 76.94,25.06 C77.2100438,25.0300848 77.4774616,24.979944 77.74,24.91 L78,23.72 L78.32,23.72 C78.23,24.38 78.16,24.99 78.11,25.56 C77.6861227,25.6204974 77.2581114,25.6472481 76.83,25.64 L74.36,25.64 L72.81,25.64 L72.81,25.38 C73.09,25.26 73.25,25.13 73.3,24.99 C73.3778365,24.4470324 73.4046202,23.8979655 73.38,23.35 L73.38,20.48 C73.4094307,19.9024051 73.3859998,19.323329 73.31,18.75 C73.31,18.63 73.12,18.57 72.89,18.57 L72.33,18.57 L72.33,18.25 L73.97,18.25 C74.33,18.25 74.82,18.25 75.44,18.25 L75.44,18.57 L74.8,18.57 C74.62,18.57 74.5,18.62 74.45,18.73 C74.3912201,19.150679 74.3778098,19.5764559 74.41,20 L74.41,23.3 L74.41,24.76 L74.41,25.11 Z M81,25.11 L82,25.11 C82.65,25.11 83.16,25.11 83.53,25.06 C83.7966897,25.0296666 84.0607523,24.9795281 84.32,24.91 L84.63,23.69 L85,23.69 C84.91,24.35 84.84,24.96 84.79,25.53 C84.3661227,25.5904974 83.9381114,25.6172481 83.51,25.61 L81.04,25.61 L79.49,25.61 L79.49,25.35 C79.77,25.23 79.93,25.1 79.98,24.96 C80.0365805,24.4217705 80.0432756,23.8794623 80,23.34 L80,20.48 C80.0273185,19.9021003 80.0005352,19.3229122 79.92,18.75 C79.92,18.63 79.73,18.57 79.5,18.57 L79,18.57 L79,18.25 L80.65,18.25 C81.01,18.25 81.5,18.25 82.12,18.25 L82.12,18.57 L81.47,18.57 C81.29,18.57 81.17,18.62 81.12,18.73 C81.0326892,19.1475223 80.9924381,19.5735134 81,20 L81,23.3 L81,24.76 L81,25.11 Z M85.7,25.31 L86,25.31 C86.32,25.31 86.5133333,25.2333333 86.58,25.08 C86.6813517,24.3379252 86.7148236,23.5881541 86.68,22.84 L86.68,21.08 C86.7140354,20.3157527 86.6872846,19.5500091 86.6,18.79 C86.55,18.65 86.38,18.58 86.1,18.58 L85.7,18.58 L85.7,18.26 C86.28,18.26 86.8533333,18.26 87.42,18.26 C87.89,18.26 88.32,18.26 88.7,18.26 L88.7,18.58 L88.3,18.58 C88.1377508,18.5593204 87.9731315,18.5908432 87.83,18.67 C87.7447618,18.8037865 87.7060927,18.961978 87.72,19.12 C87.72,19.4933333 87.72,20.16 87.72,21.12 L87.72,22.91 C87.6859992,23.651211 87.7161112,24.3939738 87.81,25.13 C87.87,25.27 88.06,25.34 88.38,25.34 L88.73,25.34 L88.73,25.66 C88.3,25.66 87.83,25.66 87.33,25.66 C86.83,25.66 86.21,25.66 85.74,25.66 L85.7,25.31 Z M91.53,19.41 L91.53,23 C91.53,23.82 91.53,24.39 91.53,24.71 C91.5256672,24.8684453 91.5673486,25.0247505 91.65,25.16 C91.8033578,25.2428986 91.9757227,25.2842662 92.15,25.28 L92.49,25.28 L92.49,25.6 C92.11,25.6 91.7766667,25.6 91.49,25.6 L90.03,25.6 L90.03,25.28 L90.41,25.28 C90.5625413,25.2983992 90.7169351,25.2668186 90.85,25.19 C90.9349803,25.0855025 90.9809426,24.9546866 90.98,24.82 C91.02,24.44 91.04,23.9233333 91.04,23.27 L91.04,20.71 C91.04,20.2233333 91.04,19.7433333 91.04,19.27 C91.0470263,19.1288644 91.0195682,18.9881415 90.96,18.86 C90.9080883,18.7800521 90.8399479,18.7119117 90.76,18.66 C90.6446426,18.5940339 90.5126905,18.5627821 90.38,18.57 L90.06,18.57 L90.06,18.25 L91.06,18.25 C91.31,18.25 91.58,18.25 91.88,18.25 C92.22,18.67 92.5533333,19.0766667 92.88,19.47 C93.2066667,19.8633333 93.52,20.2633333 93.82,20.67 L95.59,22.85 C96.2566667,23.63 96.7166667,24.1733333 96.97,24.48 L96.97,21.14 C97.0014184,20.3759747 96.9780251,19.6106799 96.9,18.85 C96.85,18.72 96.65,18.64 96.3,18.61 L95.91,18.61 L95.91,18.29 L97.21,18.29 C97.53,18.29 97.9466667,18.29 98.46,18.29 L98.46,18.61 L98,18.61 C97.68,18.61 97.49,18.72 97.44,18.93 C97.39,19.14 97.44,19.83 97.44,21.2 L97.44,23.54 C97.44,24.1733333 97.4666667,24.9266667 97.52,25.8 C97.2429449,25.7679229 96.9687912,25.7144295 96.7,25.64 C96.6157264,25.6036104 96.5405847,25.5489618 96.48,25.48 C96.0933333,25.0533333 95.69,24.58 95.27,24.06 L91.53,19.41 Z M100.69,19.41 L100.69,23 C100.69,23.82 100.69,24.39 100.69,24.71 C100.685667,24.8684453 100.727349,25.0247505 100.81,25.16 C100.963358,25.2428986 101.135723,25.2842662 101.31,25.28 L101.64,25.28 L101.64,25.6 C101.26,25.6 100.926667,25.6 100.64,25.6 L99.18,25.6 L99.18,25.28 L99.55,25.28 C99.7025413,25.2983992 99.8569351,25.2668186 99.99,25.19 C100.07498,25.0855025 100.120943,24.9546866 100.12,24.82 C100.16,24.44 100.18,23.9233333 100.18,23.27 L100.18,20.71 C100.18,20.22 100.18,19.71 100.18,19.27 C100.185124,19.1290071 100.157752,18.9887246 100.1,18.86 C100.044728,18.7794053 99.9731935,18.7112768 99.89,18.66 C99.7746426,18.5940339 99.6426905,18.5627821 99.51,18.57 L99.19,18.57 L99.19,18.25 L100.19,18.25 C100.436667,18.25 100.71,18.25 101.01,18.25 C101.35,18.67 101.683333,19.0766667 102.01,19.47 C102.336667,19.8633333 102.65,20.2633333 102.95,20.67 L104.72,22.85 C105.386667,23.63 105.846667,24.1733333 106.1,24.48 L106.1,21.14 C106.132326,20.3759797 106.10893,19.6106194 106.03,18.85 C105.98,18.72 105.78,18.64 105.43,18.61 L105.04,18.61 L105.04,18.29 L106.34,18.29 C106.66,18.29 107.08,18.29 107.59,18.29 L107.59,18.61 L107.19,18.61 C106.87,18.61 106.68,18.72 106.63,18.93 C106.58,19.14 106.63,19.83 106.63,21.2 L106.63,23.54 C106.63,24.1733333 106.656667,24.9266667 106.71,25.8 C106.433041,25.7673072 106.158934,25.7138229 105.89,25.64 C105.806202,25.6027806 105.731227,25.5482534 105.67,25.48 C105.29,25.0533333 104.886667,24.58 104.46,24.06 L100.69,19.41 Z M113,23.13 L110,23.13 L109.64,23.98 C109.482272,24.2975109 109.3647,24.6334293 109.29,24.98 C109.285971,25.0444125 109.311784,25.1071003 109.36,25.15 C109.463008,25.199973 109.575543,25.2272541 109.69,25.23 L110.19,25.29 L110.19,25.61 C109.86,25.61 109.48,25.61 109.07,25.61 C108.66,25.61 108.14,25.61 107.76,25.61 L107.76,25.29 L107.91,25.29 C108.069857,25.3002432 108.230066,25.2763824 108.38,25.22 C108.482793,25.1347781 108.561987,25.0245949 108.61,24.9 C108.856667,24.4 109.106667,23.86 109.36,23.28 L110.78,20.05 C111.16,19.19 111.42,18.5666667 111.56,18.18 L111.92,18.18 L114.54,24.29 C114.638905,24.5479106 114.755862,24.7985313 114.89,25.04 C114.937947,25.1205034 115.007145,25.1862418 115.09,25.23 C115.25571,25.2779222 115.427506,25.3015021 115.6,25.3 L115.6,25.62 C115.16,25.62 114.74,25.62 114.33,25.62 C113.92,25.62 113.45,25.62 112.82,25.62 L112.82,25.3 L113.33,25.3 C113.442594,25.2987218 113.554163,25.2784365 113.66,25.24 C113.710085,25.2065355 113.740112,25.1502362 113.74,25.09 C113.709997,24.9212023 113.659629,24.7566673 113.59,24.6 L113,23.13 Z M110.19,22.71 L112.82,22.71 L111.51,19.57 L110.19,22.71 Z M120.41,18.57 L120.41,18.25 L121.96,18.25 L123.46,18.25 L123.46,18.57 L123.08,18.57 C122.76,18.57 122.56,18.63 122.5,18.76 C122.397724,19.3171294 122.36414,19.8846968 122.4,20.45 L122.4,22.45 C122.379077,22.9695848 122.419353,23.4898271 122.52,24 C122.623582,24.3204387 122.850193,24.5866176 123.15,24.74 C123.568975,24.958101 124.038151,25.0615956 124.51,25.04 C125.022125,25.0564801 125.530427,24.9465769 125.99,24.72 C126.269578,24.5706933 126.4861,24.3257753 126.6,24.03 C126.760829,23.4511602 126.825025,22.8497456 126.79,22.25 L126.79,20.25 C126.832398,19.7302388 126.791892,19.207042 126.67,18.7 C126.59,18.57 126.37,18.5 126,18.5 L125.73,18.5 L125.73,18.18 L127.1,18.18 C127.413333,18.18 127.803333,18.18 128.27,18.18 L128.27,18.5 L127.91,18.5 C127.63,18.5 127.46,18.57 127.38,18.72 C127.263739,19.2279154 127.223301,19.7502426 127.26,20.27 L127.26,22.21 C127.286729,22.8130127 127.243102,23.4170862 127.13,24.01 C127.041155,24.3250626 126.876332,24.6135013 126.65,24.85 C126.386373,25.1165438 126.06465,25.3184765 125.71,25.44 C125.26689,25.5953951 124.799464,25.6699122 124.33,25.66 C123.846484,25.6690647 123.364374,25.6050082 122.9,25.47 C122.562804,25.3769497 122.249218,25.2133397 121.98,24.99 C121.772657,24.7989459 121.61773,24.557948 121.53,24.29 C121.417579,23.8322648 121.370446,23.3609327 121.39,22.89 L121.39,20.39 C121.419888,19.841687 121.389709,19.2917497 121.3,18.75 C121.24,18.63 121.06,18.57 120.75,18.57 L120.41,18.57 Z M123.41,16.57 C123.724802,16.57 123.98,16.8251977 123.98,17.14 C123.98,17.4548023 123.724802,17.71 123.41,17.71 C123.095198,17.71 122.84,17.4548023 122.84,17.14 C122.838139,16.9887411 122.899809,16.8436368 123.01,16.74 C123.116029,16.6344932 123.260457,16.5767221 123.41,16.58 L123.41,16.57 Z M125.65,16.58 C125.964802,16.58 126.22,16.8351977 126.22,17.15 C126.223442,17.3044791 126.161744,17.4532809 126.05,17.56 C125.946363,17.6701914 125.801259,17.7318607 125.65,17.73 C125.499217,17.7294955 125.355009,17.668207 125.25,17.56 C125.141907,17.4529498 125.081092,17.3071311 125.081092,17.155 C125.081092,17.0028689 125.141907,16.8570502 125.25,16.75 C125.358441,16.6419272 125.507021,16.5839447 125.66,16.59 L125.65,16.58 Z M131.39,25.11 L132.39,25.11 C133.04,25.11 133.55,25.11 133.92,25.06 C134.190044,25.0300848 134.457462,24.979944 134.72,24.91 L135.03,23.69 L135.35,23.69 C135.26,24.35 135.19,24.96 135.14,25.53 C134.716118,25.5904556 134.28811,25.6172061 133.86,25.61 L131.39,25.61 L129.84,25.61 L129.84,25.35 C130.046544,25.2862042 130.221487,25.1469636 130.33,24.96 C130.406582,24.4169129 130.43336,23.8679623 130.41,23.32 L130.41,20.48 C130.435729,19.9021006 130.408953,19.3230586 130.33,18.75 C130.28,18.63 130.14,18.57 129.91,18.57 L129.35,18.57 L129.35,18.25 L130.99,18.25 C131.35,18.25 131.84,18.25 132.46,18.25 L132.46,18.57 L131.82,18.57 C131.64,18.57 131.52,18.62 131.47,18.73 C131.39754,19.1626517 131.374058,19.6020902 131.4,20.04 L131.4,23.34 L131.4,24.8 L131.39,25.11 Z M136,25.31 L136.33,25.31 C136.65,25.31 136.85,25.23 136.91,25.08 C137.010911,24.3378854 137.044382,23.5881544 137.01,22.84 L137.01,21.08 C137.044035,20.3157527 137.017285,19.5500091 136.93,18.79 C136.87,18.65 136.71,18.58 136.43,18.58 L136,18.58 L136,18.26 C136.58,18.26 137.15,18.26 137.72,18.26 C138.29,18.26 138.62,18.26 139,18.26 L139,18.58 L138.6,18.58 C138.437729,18.5586074 138.272888,18.5901727 138.13,18.67 C138.043324,18.8031683 138.004532,18.961863 138.02,19.12 C138.02,19.4933333 138.02,20.16 138.02,21.12 L138.02,22.91 C137.984778,23.6512072 138.014895,24.3940763 138.11,25.13 C138.17,25.27 138.36,25.34 138.68,25.34 L139,25.34 L139,25.66 C138.573333,25.66 138.106667,25.66 137.6,25.66 C137.093333,25.66 136.56,25.66 136,25.66 L136,25.31 Z M143.39,21.53 L146.91,24.85 L147.23,25.16 C147.284666,25.219472 147.353457,25.264186 147.43,25.29 C147.539553,25.3040182 147.650447,25.3040182 147.76,25.29 L147.76,25.61 C147.48,25.61 147.22,25.61 147.01,25.61 C146.8,25.61 146.54,25.61 146.27,25.61 L142.7,22.21 C142.58,22.1 142.51,22.04 142.48,22.04 C142.45,22.04 142.37,22.11 142.37,22.24 L142.37,23.82 C142.335568,24.2426332 142.335568,24.6673668 142.37,25.09 C142.42,25.21 142.61,25.28 142.94,25.28 L143.33,25.28 L143.33,25.6 C142.76,25.6 142.26,25.6 141.82,25.6 C141.38,25.6 140.82,25.6 140.33,25.6 L140.33,25.28 L140.75,25.28 C141.03,25.28 141.19,25.23 141.25,25.13 C141.332843,24.6952113 141.359728,24.2516112 141.33,23.81 L141.33,20.36 C141.360789,19.8220159 141.33397,19.2822818 141.25,18.75 C141.19,18.63 141.03,18.57 140.75,18.57 L140.33,18.57 L140.33,18.25 L141.72,18.25 L143.33,18.25 L143.33,18.57 L143,18.57 C142.843695,18.5617617 142.688105,18.5963372 142.55,18.67 C142.472095,18.758332 142.429386,18.8722235 142.43,18.99 C142.43,19.15 142.43,19.61 142.43,20.37 L142.43,21.77 L142.5,21.77 C142.78,21.54 143.03,21.33 143.23,21.13 C143.43,20.93 143.77,20.6 144.23,20.13 L145.7,18.6 L145.7,18.24 C146.08,18.24 146.4,18.24 146.64,18.24 C146.88,18.24 147.19,18.24 147.5,18.24 L147.5,18.56 L147.22,18.56 C147.00153,18.5525345 146.784746,18.6007087 146.59,18.7 C146.163794,19.0005662 145.762496,19.3349813 145.39,19.7 L143.39,21.53 Z M148,21.94 C147.959327,20.9116224 148.359521,19.9147766 149.1,19.2 C149.907903,18.4956171 150.960031,18.1365293 152.03,18.2 C153.061681,18.1511372 154.071128,18.5103712 154.84,19.2 C155.524628,19.8748294 155.888475,20.8099164 155.84,21.77 C155.867039,22.852832 155.439041,23.8974367 154.66,24.65 C153.860388,25.4301512 152.776456,25.8492715 151.66,25.81 C150.985423,25.829053 150.317305,25.6740772 149.72,25.36 C149.170059,25.0512266 148.721841,24.5891107 148.43,24.03 C148.108183,23.4132627 147.946564,22.7255219 147.96,22.03 L148,21.94 Z M149.02,21.61 C149.008206,22.2976521 149.144632,22.9797804 149.42,23.61 C149.645259,24.1365886 150.016551,24.5876906 150.49,24.91 C150.947528,25.1986305 151.479098,25.3480259 152.02,25.34 C152.512159,25.3506395 152.99736,25.2224079 153.42,24.97 C153.834198,24.7075812 154.16131,24.3282696 154.36,23.88 C154.601946,23.322129 154.718029,22.7178097 154.7,22.11 C154.718489,21.4657671 154.588466,20.8259211 154.32,20.24 C154.108234,19.7606135 153.760561,19.3538356 153.32,19.07 C152.845178,18.8004646 152.305801,18.6656204 151.76,18.68 C151.260647,18.6670216 150.766913,18.7878655 150.33,19.03 C149.92564,19.2642651 149.598829,19.6119356 149.39,20.03 C149.154991,20.5087036 149.038388,21.0368475 149.05,21.57 L149.02,21.61 Z M156.69,21.94 C156.649327,20.9116224 157.049521,19.9147766 157.79,19.2 C158.597903,18.4956171 159.650031,18.1365293 160.72,18.2 C161.751681,18.1511372 162.761128,18.5103712 163.53,19.2 C164.214628,19.8748294 164.578475,20.8099164 164.53,21.77 C164.557039,22.852832 164.129041,23.8974367 163.35,24.65 C162.550388,25.4301512 161.466456,25.8492715 160.35,25.81 C159.675468,25.828603 159.007462,25.6736532 158.41,25.36 C157.86411,25.049242 157.419622,24.5873918 157.13,24.03 C156.808988,23.4129637 156.647418,22.725431 156.66,22.03 L156.69,21.94 Z M157.72,21.61 C157.70883,22.2975955 157.84523,22.9795925 158.12,23.61 C158.345259,24.1365886 158.716551,24.5876906 159.19,24.91 C159.647528,25.1986305 160.179098,25.3480259 160.72,25.34 C161.212159,25.3506395 161.69736,25.2224079 162.12,24.97 C162.534595,24.7080422 162.861825,24.328595 163.06,23.88 C163.302578,23.3223246 163.41869,22.7178625 163.4,22.11 C163.418489,21.4657671 163.288466,20.8259211 163.02,20.24 C162.814716,19.7321379 162.458736,19.2993778 162,19 C161.522252,18.7286899 160.979172,18.5937848 160.43,18.61 C159.92702,18.6096745 159.433172,18.7443603 159,19 C158.59527,19.2337988 158.268341,19.5815954 158.06,20 C157.824991,20.4787036 157.708388,21.0068475 157.72,21.54 L157.72,21.61 Z M167.38,25.11 L168.38,25.11 C169.03,25.11 169.54,25.11 169.91,25.06 C170.176701,25.02974 170.440769,24.9796005 170.7,24.91 L171.01,23.69 L171.33,23.69 C171.24,24.35 171.17,24.96 171.12,25.53 C170.696114,25.5904138 170.26811,25.6171641 169.84,25.61 L167.37,25.61 L165.82,25.61 L165.82,25.35 C166.1,25.23 166.26,25.1 166.31,24.96 C166.388972,24.4171419 166.415761,23.8679671 166.39,23.32 L166.39,20.48 C166.417319,19.9021003 166.390535,19.3229122 166.31,18.75 C166.26,18.63 166.12,18.57 165.89,18.57 L165.32,18.57 L165.32,18.25 L166.97,18.25 C167.33,18.25 167.82,18.25 168.44,18.25 L168.44,18.57 L167.8,18.57 C167.62,18.57 167.5,18.62 167.45,18.73 C167.37754,19.1626517 167.354058,19.6020902 167.38,20.04 L167.38,23.34 L167.38,24.8 L167.38,25.11 Z" fill="#000"/></g></svg>